<svg width="196" height="224" viewBox="0 0 196 224" fill="none" xmlns="http://www.w3.org/2000/svg">
<path d="M22.8223 94.1641C19.4824 94.1641 16.4518 93.3291 13.7305 91.6592C11.0091 90.0511 8.68978 87.8245 6.77246 84.9795C4.91699 82.1344 3.46354 78.7946 2.41211 74.96C1.42253 71.1253 0.927734 66.9814 0.927734 62.5283C0.927734 56.1579 1.66992 50.4678 3.1543 45.458C4.63867 40.4482 6.58691 36.2116 8.99902 32.748C11.473 29.2845 14.2562 26.625 17.3486 24.7695C20.5029 22.9141 23.7191 21.9863 26.9971 21.9863C30.0895 21.9863 32.6872 22.543 34.79 23.6562C36.8929 24.7695 38.5628 26.1921 39.7998 27.9238C41.0986 29.6556 41.9645 31.5729 42.3975 33.6758C42.8923 35.7168 43.0469 37.665 42.8613 39.5205C42.5521 43.1077 41.3151 46.0146 39.1504 48.2412C37.0475 50.4678 34.6045 51.5811 31.8213 51.5811C30.8936 51.5192 29.9349 51.3646 28.9453 51.1172C28.0794 50.8698 27.1826 50.4987 26.2549 50.0039C25.3271 49.5091 24.4613 48.7979 23.6572 47.8701C26.2549 48.0557 28.265 47.5299 29.6875 46.293C31.11 45.056 32.1615 43.6644 32.8418 42.1182C33.584 40.3245 34.0169 38.2217 34.1406 35.8096C34.1406 34.4489 33.9242 33.2738 33.4912 32.2842C33.0583 31.2327 32.4707 30.3978 31.7285 29.7793C31.0482 29.099 30.306 28.6042 29.502 28.2949C28.6979 27.9857 27.9248 27.8311 27.1826 27.8311C25.5127 27.8311 23.6882 28.4805 21.709 29.7793C19.7917 31.0781 17.9671 33.0573 16.2354 35.7168C14.5036 38.3145 13.0501 41.6543 11.875 45.7363C10.7617 49.7565 10.2051 54.5498 10.2051 60.1162C10.2051 65.6208 10.6999 70.1357 11.6895 73.6611C12.679 77.1247 13.8851 79.846 15.3076 81.8252C16.7301 83.7425 18.2145 85.0723 19.7607 85.8145C21.3688 86.4948 22.7295 86.835 23.8428 86.835C26.0075 86.6494 27.9867 85.9072 29.7803 84.6084C31.3265 83.4951 32.7799 81.7324 34.1406 79.3203C35.5632 76.8464 36.5218 73.321 37.0166 68.7441C37.8206 68.806 38.4701 68.9915 38.9648 69.3008C39.5215 69.61 39.9854 69.9193 40.3564 70.2285C40.7275 70.5996 41.0677 71.0326 41.377 71.5273C41.4388 71.5892 41.4388 72.2077 41.377 73.3828C41.3151 74.5579 41.0986 75.9805 40.7275 77.6504C40.3564 79.3203 39.7689 81.1139 38.9648 83.0312C38.2227 84.9486 37.1403 86.7422 35.7178 88.4121C34.3571 90.082 32.6253 91.4427 30.5225 92.4941C28.4196 93.6074 25.8529 94.1641 22.8223 94.1641ZM74.5898 81.2686C74.7135 81.7015 74.8991 82.1035 75.1465 82.4746C75.332 82.7839 75.5794 83.0931 75.8887 83.4023C76.2598 83.6497 76.6927 83.8044 77.1875 83.8662C76.7546 84.7321 76.3216 85.3197 75.8887 85.6289C75.6413 85.8145 75.4248 85.9382 75.2393 86C74.6826 86.1855 73.8477 86.2783 72.7344 86.2783C71.6211 86.2783 70.5387 85.9382 69.4873 85.2578C69.1162 84.9486 68.776 84.4847 68.4668 83.8662C68.1576 83.3714 67.8792 82.6911 67.6318 81.8252C67.4463 80.8975 67.2917 79.7223 67.168 78.2998C66.3021 80.1553 65.3125 81.6396 64.1992 82.7529C63.1478 83.8044 62.0964 84.5775 61.0449 85.0723C59.8698 85.7526 58.6637 86.1546 57.4268 86.2783C55.8805 86.402 54.3962 86.1546 52.9736 85.5361C51.613 84.8558 50.4378 83.8662 49.4482 82.5674C48.5205 81.2067 47.8092 79.5677 47.3145 77.6504C46.8197 75.7331 46.665 73.5684 46.8506 71.1562C47.0361 68.6204 47.5309 66.363 48.335 64.3838C49.139 62.4046 50.0977 60.6419 51.2109 59.0957C52.3242 57.5495 53.4993 56.2507 54.7363 55.1992C55.9733 54.0859 57.1484 53.1891 58.2617 52.5088C59.4368 51.7666 60.4264 51.2409 61.2305 50.9316C62.0964 50.5605 62.653 50.3441 62.9004 50.2822C63.5807 50.0967 64.1683 50.0348 64.6631 50.0967C65.1579 50.1585 65.5908 50.4368 65.9619 50.9316C66.0856 51.1172 66.2402 51.3337 66.4258 51.5811C66.5495 51.8285 66.7041 52.1686 66.8896 52.6016C67.0752 52.9727 67.2298 53.4056 67.3535 53.9004C65.8691 54.5807 64.4775 55.3538 63.1787 56.2197C61.8799 57.0238 60.6738 58.0133 59.5605 59.1885C58.5091 60.3636 57.5814 61.7861 56.7773 63.4561C55.9733 65.126 55.3548 67.167 54.9219 69.5791C54.3034 72.6097 54.458 75.0527 55.3857 76.9082C56.3753 78.7637 57.7051 79.5368 59.375 79.2275C60.3646 78.9183 61.3232 78.3307 62.251 77.4648C63.055 76.7227 63.89 75.6094 64.7559 74.125C65.6836 72.6406 66.5495 70.5996 67.3535 68.002C67.6628 64.291 67.9102 61.3841 68.0957 59.2812C68.3431 57.1165 68.5596 55.4775 68.7451 54.3643C68.9925 53.0654 69.1781 52.1995 69.3018 51.7666C69.4873 51.4574 69.8584 51.179 70.415 50.9316C70.9717 50.6224 71.5902 50.375 72.2705 50.1895C72.9508 50.0039 73.5693 49.9111 74.126 49.9111C74.6826 49.8493 75.0537 49.8493 75.2393 49.9111C75.363 49.973 75.4248 50.7461 75.4248 52.2305C75.4248 53.653 75.363 55.4775 75.2393 57.7041C75.1774 59.8688 75.0846 62.25 74.9609 64.8477C74.8372 67.3835 74.7135 69.7956 74.5898 72.084C74.528 74.3724 74.4661 76.3825 74.4043 78.1143C74.4043 79.7842 74.4661 80.8356 74.5898 81.2686ZM97.2266 68.373C98.5872 68.8678 99.8861 69.3317 101.123 69.7646C102.36 70.1976 103.442 70.7233 104.37 71.3418C105.298 71.9603 106.04 72.7025 106.597 73.5684C107.153 74.3724 107.432 75.3929 107.432 76.6299C107.432 78.1143 107.091 79.5059 106.411 80.8047C105.793 82.1035 104.865 83.2477 103.628 84.2373C102.391 85.2269 100.876 86 99.082 86.5566C97.3503 87.1751 95.402 87.4844 93.2373 87.4844C90.8252 87.4844 88.877 87.237 87.3926 86.7422C85.9082 86.3092 84.764 85.7835 83.96 85.165C83.1559 84.5465 82.6302 83.9281 82.3828 83.3096C82.1354 82.6911 82.0117 82.1963 82.0117 81.8252C82.0117 81.083 82.1663 80.279 82.4756 79.4131C82.7848 78.4854 83.3724 77.4958 84.2383 76.4443C84.6094 76.0114 85.0114 75.6094 85.4443 75.2383C86.3102 74.4961 87.1761 74.0322 88.042 73.8467C87.9183 75.2692 88.0729 76.4443 88.5059 77.3721C89.0007 78.238 89.6191 78.9183 90.3613 79.4131C91.1654 79.9079 92.0312 80.248 92.959 80.4336C93.9486 80.6191 94.8763 80.7119 95.7422 80.7119C96.6081 80.7119 97.474 80.5882 98.3398 80.3408C99.2676 80.0934 100.103 79.7842 100.845 79.4131C101.587 78.9801 102.174 78.5163 102.607 78.0215C103.102 77.4648 103.35 76.8773 103.35 76.2588C103.35 75.5785 103.071 75.0218 102.515 74.5889C101.958 74.1559 101.247 73.8158 100.381 73.5684C99.5768 73.2591 98.68 73.0426 97.6904 72.9189C96.7627 72.7334 95.8659 72.5479 95 72.3623C94.1341 72.1768 92.959 71.9294 91.4746 71.6201C90.0521 71.249 88.6296 70.6924 87.207 69.9502C85.8464 69.208 84.6403 68.2184 83.5889 66.9814C82.5993 65.7445 82.1045 64.1055 82.1045 62.0645C82.1045 59.7142 82.6921 57.6732 83.8672 55.9414C85.1042 54.1478 86.5885 52.6634 88.3203 51.4883C90.1139 50.2513 92.0003 49.3236 93.9795 48.7051C95.9587 48.0866 97.7214 47.7773 99.2676 47.7773C100.072 47.7773 100.938 47.901 101.865 48.1484C102.793 48.334 103.659 48.7051 104.463 49.2617C105.267 49.7565 105.916 50.4368 106.411 51.3027C106.968 52.1686 107.246 53.2819 107.246 54.6426C107.246 56.0033 107.122 57.1165 106.875 57.9824C106.689 58.7865 106.38 59.4359 105.947 59.9307C105.576 60.3636 105.112 60.6419 104.556 60.7656C103.999 60.8893 103.35 60.9512 102.607 60.9512C102.113 60.9512 101.649 60.8893 101.216 60.7656C100.845 60.6419 100.443 60.5182 100.01 60.3945C99.5768 60.2708 99.1748 60.0544 98.8037 59.7451C99.4222 59.0029 99.8861 58.2917 100.195 57.6113C100.566 56.931 100.752 56.096 100.752 55.1064C100.752 54.2406 100.505 53.4674 100.01 52.7871C99.5768 52.1068 98.8346 51.7666 97.7832 51.7666C96.6699 51.7666 95.5876 51.9831 94.5361 52.416C93.5465 52.849 92.6497 53.4365 91.8457 54.1787C91.1035 54.9209 90.485 55.7868 89.9902 56.7764C89.5573 57.7041 89.3408 58.7246 89.3408 59.8379C89.3408 61.5078 89.9593 63.085 91.1963 64.5693C92.4951 66.0537 94.5052 67.3216 97.2266 68.373ZM120.605 71.4346C121.348 69.208 121.966 67.3216 122.461 65.7754C123.018 64.2292 123.481 62.9922 123.853 62.0645C124.285 60.9512 124.657 60.0544 124.966 59.374C125.337 58.3844 125.739 57.3949 126.172 56.4053C126.667 55.4157 127.161 54.5189 127.656 53.7148C128.151 52.849 128.615 52.1377 129.048 51.5811C129.481 51.0244 129.852 50.6533 130.161 50.4678C130.409 50.3441 130.965 50.3441 131.831 50.4678C132.759 50.5915 133.748 50.9007 134.8 51.3955C135.913 51.8285 136.934 52.4469 137.861 53.251C138.851 54.055 139.531 55.0446 139.902 56.2197C140.273 57.6423 140.397 59.4977 140.273 61.7861C140.15 64.0745 139.964 66.4248 139.717 68.8369C139.531 71.249 139.377 73.5374 139.253 75.7021C139.191 77.8669 139.346 79.5059 139.717 80.6191C139.964 81.2376 140.212 81.8561 140.459 82.4746C140.706 82.9694 140.985 83.4951 141.294 84.0518C141.665 84.5465 142.067 84.9795 142.5 85.3506C140.706 86.0309 139.253 86.5257 138.14 86.835C137.088 87.2061 136.284 87.4535 135.728 87.5771C135.047 87.7627 134.583 87.7936 134.336 87.6699C133.841 87.4844 133.377 87.0205 132.944 86.2783C132.511 85.5361 132.14 84.361 131.831 82.7529C131.707 82.2581 131.676 81.3923 131.738 80.1553C131.8 78.9183 131.893 77.5267 132.017 75.9805C132.14 74.4342 132.264 72.8262 132.388 71.1562C132.511 69.4245 132.635 67.8164 132.759 66.332C132.882 64.8477 132.944 63.5488 132.944 62.4355C133.006 61.3223 133.006 60.5801 132.944 60.209C132.635 59.1576 132.202 58.4154 131.646 57.9824C131.089 57.4876 130.656 57.4258 130.347 57.7969C129.604 58.7246 128.77 60.3327 127.842 62.6211C126.976 64.8477 126.141 67.2907 125.337 69.9502C124.533 72.5479 123.822 75.1455 123.203 77.7432C122.646 80.3408 122.306 82.4746 122.183 84.1445C122.183 84.5156 121.873 84.9176 121.255 85.3506C120.698 85.7217 120.049 86.0618 119.307 86.3711C118.626 86.6803 117.946 86.8659 117.266 86.9277C116.585 87.0514 116.121 86.9587 115.874 86.6494C115.688 86.4639 115.286 86.0309 114.668 85.3506C114.111 84.6702 113.802 83.526 113.74 81.918C113.617 80.3717 113.617 78.2689 113.74 75.6094C113.864 72.888 113.895 70.043 113.833 67.0742V60.209C113.833 57.4258 113.802 53.5911 113.74 48.7051C113.74 43.7572 113.709 37.2321 113.647 29.1299C114.328 28.7588 114.946 28.4495 115.503 28.2021C116.06 27.8929 116.585 27.6455 117.08 27.46C117.637 27.2126 118.162 27.027 118.657 26.9033C121.317 26.223 122.708 26.223 122.832 26.9033C122.894 27.5218 122.832 29.501 122.646 32.8408C122.585 34.2633 122.492 36.057 122.368 38.2217C122.244 40.3864 122.09 43.015 121.904 46.1074C121.781 49.1999 121.595 52.849 121.348 57.0547C121.162 61.1986 120.915 65.9919 120.605 71.4346ZM173.765 81.2686C173.888 81.7015 174.074 82.1035 174.321 82.4746C174.507 82.7839 174.754 83.0931 175.063 83.4023C175.435 83.6497 175.868 83.8044 176.362 83.8662C175.929 84.7321 175.496 85.3197 175.063 85.6289C174.816 85.8145 174.6 85.9382 174.414 86C173.857 86.1855 173.022 86.2783 171.909 86.2783C170.796 86.2783 169.714 85.9382 168.662 85.2578C168.291 84.9486 167.951 84.4847 167.642 83.8662C167.332 83.3714 167.054 82.6911 166.807 81.8252C166.621 80.8975 166.466 79.7223 166.343 78.2998C165.477 80.1553 164.487 81.6396 163.374 82.7529C162.323 83.8044 161.271 84.5775 160.22 85.0723C159.045 85.7526 157.839 86.1546 156.602 86.2783C155.055 86.402 153.571 86.1546 152.148 85.5361C150.788 84.8558 149.613 83.8662 148.623 82.5674C147.695 81.2067 146.984 79.5677 146.489 77.6504C145.994 75.7331 145.84 73.5684 146.025 71.1562C146.211 68.6204 146.706 66.363 147.51 64.3838C148.314 62.4046 149.272 60.6419 150.386 59.0957C151.499 57.5495 152.674 56.2507 153.911 55.1992C155.148 54.0859 156.323 53.1891 157.437 52.5088C158.612 51.7666 159.601 51.2409 160.405 50.9316C161.271 50.5605 161.828 50.3441 162.075 50.2822C162.756 50.0967 163.343 50.0348 163.838 50.0967C164.333 50.1585 164.766 50.4368 165.137 50.9316C165.26 51.1172 165.415 51.3337 165.601 51.5811C165.724 51.8285 165.879 52.1686 166.064 52.6016C166.25 52.9727 166.405 53.4056 166.528 53.9004C165.044 54.5807 163.652 55.3538 162.354 56.2197C161.055 57.0238 159.849 58.0133 158.735 59.1885C157.684 60.3636 156.756 61.7861 155.952 63.4561C155.148 65.126 154.53 67.167 154.097 69.5791C153.478 72.6097 153.633 75.0527 154.561 76.9082C155.55 78.7637 156.88 79.5368 158.55 79.2275C159.539 78.9183 160.498 78.3307 161.426 77.4648C162.23 76.7227 163.065 75.6094 163.931 74.125C164.858 72.6406 165.724 70.5996 166.528 68.002C166.838 64.291 167.085 61.3841 167.271 59.2812C167.518 57.1165 167.734 55.4775 167.92 54.3643C168.167 53.0654 168.353 52.1995 168.477 51.7666C168.662 51.4574 169.033 51.179 169.59 50.9316C170.146 50.6224 170.765 50.375 171.445 50.1895C172.126 50.0039 172.744 49.9111 173.301 49.9111C173.857 49.8493 174.229 49.8493 174.414 49.9111C174.538 49.973 174.6 50.7461 174.6 52.2305C174.6 53.653 174.538 55.4775 174.414 57.7041C174.352 59.8688 174.259 62.25 174.136 64.8477C174.012 67.3835 173.888 69.7956 173.765 72.084C173.703 74.3724 173.641 76.3825 173.579 78.1143C173.579 79.7842 173.641 80.8356 173.765 81.2686ZM182.3 53.1582C182.3 52.7871 182.795 52.3851 183.784 51.9521C184.774 51.5192 185.856 51.179 187.031 50.9316C188.268 50.6224 189.382 50.4678 190.371 50.4678C191.423 50.4059 191.948 50.6224 191.948 51.1172C191.948 52.0449 191.886 53.3747 191.763 55.1064C191.639 56.7764 191.484 58.57 191.299 60.4873C191.113 62.3428 190.928 64.2292 190.742 66.1465C190.557 68.002 190.433 69.5791 190.371 70.8779C190.247 72.2386 190.124 73.723 190 75.3311C189.876 76.6917 189.784 78.207 189.722 79.877C189.66 81.5469 189.66 83.2477 189.722 84.9795C189.722 85.2887 189.412 85.598 188.794 85.9072C188.175 86.2165 187.495 86.4329 186.753 86.5566C186.011 86.7422 185.299 86.835 184.619 86.835C183.939 86.835 183.568 86.7113 183.506 86.4639C183.382 86.2165 183.258 85.7835 183.135 85.165C183.011 84.5465 182.887 83.6807 182.764 82.5674C182.64 81.3923 182.547 79.9079 182.485 78.1143C182.424 76.2588 182.454 74.0322 182.578 71.4346C182.826 66.3011 182.856 62.3428 182.671 59.5596C182.485 56.7145 182.362 54.5807 182.3 53.1582ZM188.794 34.6963C190.031 34.6963 191.206 35.0674 192.319 35.8096C193.433 36.5518 193.989 37.5413 193.989 38.7783C193.989 39.7061 193.742 40.6029 193.247 41.4688C192.814 42.3346 192.257 43.1077 191.577 43.7881C190.897 44.4684 190.124 45.0251 189.258 45.458C188.392 45.8291 187.588 46.0146 186.846 46.0146C185.856 46.0146 185.052 45.86 184.434 45.5508C183.815 45.1797 183.32 44.7777 182.949 44.3447C182.64 43.8499 182.424 43.3242 182.3 42.7676C182.176 42.2109 182.114 41.6852 182.114 41.1904C182.114 40.5719 182.207 39.8916 182.393 39.1494C182.578 38.3454 182.918 37.6341 183.413 37.0156C183.908 36.3353 184.588 35.7786 185.454 35.3457C186.32 34.9128 187.433 34.6963 188.794 34.6963ZM186.475 43.3242C186.846 43.3242 187.248 43.2005 187.681 42.9531C188.175 42.6439 188.608 42.3037 188.979 41.9326C189.412 41.5615 189.753 41.1595 190 40.7266C190.309 40.2936 190.464 39.9225 190.464 39.6133C190.464 39.1185 190.216 38.8711 189.722 38.8711C189.412 38.8711 189.01 38.9948 188.516 39.2422C188.083 39.4896 187.65 39.7988 187.217 40.1699C186.784 40.4792 186.413 40.8503 186.104 41.2832C185.856 41.6543 185.732 42.0254 185.732 42.3965C185.732 43.015 185.98 43.3242 186.475 43.3242Z" fill="white"/>
<path d="M7.754 203.57H13.424C14.234 203.57 14.639 203.165 14.639 202.355V152.945C14.639 152.135 14.234 151.73 13.424 151.73H7.754C6.944 151.73 6.539 151.325 6.539 150.515C6.539 149.705 6.944 149.3 7.754 149.3H15.854C16.664 149.3 17.069 149.705 17.069 150.515V190.367L36.509 169.145C36.833 168.875 36.941 168.605 36.833 168.335C36.779 168.065 36.536 167.93 36.104 167.93H31.568C30.758 167.93 30.353 167.525 30.353 166.715C30.353 165.905 30.758 165.5 31.568 165.5H47.444C48.254 165.5 48.659 165.905 48.659 166.715C48.659 167.525 48.254 167.93 47.444 167.93H42.26C41.666 167.93 40.964 168.335 40.154 169.145L28.004 182.348L42.584 202.355C43.286 203.165 43.961 203.57 44.609 203.57H49.874C50.684 203.57 51.089 203.975 51.089 204.785C51.089 205.595 50.684 206 49.874 206H34.484C33.674 206 33.269 205.595 33.269 204.785C33.269 203.975 33.674 203.57 34.484 203.57H38.939C39.911 203.57 40.046 203.165 39.344 202.355L26.222 184.292L17.069 194.336V202.355C17.069 203.165 17.474 203.57 18.284 203.57H23.144C23.954 203.57 24.359 203.975 24.359 204.785C24.359 205.595 23.954 206 23.144 206H7.754C6.944 206 6.539 205.595 6.539 204.785C6.539 203.975 6.944 203.57 7.754 203.57ZM73.3684 219.041C72.0184 220.553 70.6954 221.579 69.3994 222.119C68.1574 222.713 66.7804 223.01 65.2684 223.01C62.7304 223.01 60.5974 222.524 58.8694 221.552C57.1414 220.634 55.8184 219.581 54.9004 218.393C54.2524 217.745 54.1984 217.124 54.7384 216.53C55.2784 215.99 55.8454 215.99 56.4394 216.53C57.3574 217.448 58.4914 218.339 59.8414 219.203C61.2454 220.121 63.0814 220.58 65.3494 220.58C67.6714 220.58 69.6424 219.635 71.2624 217.745C72.8824 215.909 74.4754 212.939 76.0414 208.835L76.8514 206.729C77.0674 206.027 77.0674 205.379 76.8514 204.785L60.0844 169.145C59.6524 168.335 59.1124 167.93 58.4644 167.93H53.1994C52.3894 167.93 51.9844 167.525 51.9844 166.715C51.9844 165.905 52.3894 165.5 53.1994 165.5H68.5894C69.3994 165.5 69.8044 165.905 69.8044 166.715C69.8044 167.525 69.3994 167.93 68.5894 167.93H63.5674C62.5954 167.93 62.3254 168.335 62.7574 169.145L78.0664 201.14C78.3364 201.896 78.6334 201.896 78.9574 201.14L91.3504 169.145C91.7284 168.335 91.4584 167.93 90.5404 167.93H85.5184C84.7084 167.93 84.3034 167.525 84.3034 166.715C84.3034 165.905 84.7084 165.5 85.5184 165.5H100.908C101.718 165.5 102.123 165.905 102.123 166.715C102.123 167.525 101.718 167.93 100.908 167.93H95.6434C94.9414 167.93 94.4014 168.335 94.0234 169.145L78.6334 208.835C76.5274 214.127 74.7724 217.529 73.3684 219.041ZM135.605 186.155C135.605 185.345 135.2 184.94 134.39 184.94H121.025C116.327 184.94 112.844 185.858 110.576 187.694C108.362 189.53 107.255 191.879 107.255 194.741C107.255 197.549 108.281 199.871 110.333 201.707C112.439 203.489 115.598 204.38 119.81 204.38C125.048 204.38 129.665 201.734 133.661 196.442C134.363 195.524 135.011 194.525 135.605 193.445V186.155ZM122.969 164.69C127.505 164.69 131.15 165.986 133.904 168.578C136.658 171.116 138.035 174.275 138.035 178.055V202.355C138.035 203.165 138.44 203.57 139.25 203.57H144.92C145.73 203.57 146.135 203.975 146.135 204.785C146.135 205.595 145.73 206 144.92 206H136.82C136.01 206 135.605 205.595 135.605 204.785V200.249C135.605 199.709 135.497 199.331 135.281 199.115C135.065 198.899 134.741 199.007 134.309 199.439C132.851 201.275 130.826 202.976 128.234 204.542C125.642 206.054 122.942 206.81 120.134 206.81C115.112 206.81 111.305 205.703 108.713 203.489C106.121 201.221 104.825 198.305 104.825 194.741C104.825 191.177 106.31 188.261 109.28 185.993C112.25 183.671 116.165 182.51 121.025 182.51H134.39C135.2 182.51 135.605 182.105 135.605 181.295V178.055C135.605 174.923 134.417 172.331 132.041 170.279C129.665 168.173 126.749 167.12 123.293 167.12C119.837 167.12 117.002 167.606 114.788 168.578C112.574 169.496 111.008 170.306 110.09 171.008C109.226 171.71 108.551 171.737 108.065 171.089C107.633 170.441 107.714 169.901 108.308 169.469C112.196 166.283 117.083 164.69 122.969 164.69ZM149.506 164.69C149.506 159.776 151.153 155.861 154.447 152.945C157.795 149.975 162.331 148.49 168.055 148.49C173.833 148.49 178.396 150.029 181.744 153.107C185.092 156.185 186.766 159.776 186.766 163.88C186.766 166.742 186.172 169.226 184.984 171.332C183.796 173.438 182.365 175.139 180.691 176.435L175.507 180.242C171.403 183.212 169.351 186.803 169.351 191.015C169.351 191.825 168.946 192.23 168.136 192.23C167.326 192.23 166.921 191.825 166.921 191.015C166.921 188.693 167.353 186.614 168.217 184.778C169.081 182.942 170.161 181.484 171.457 180.404L179.8 173.681C181.096 172.655 182.176 171.305 183.04 169.631C183.904 167.903 184.336 165.986 184.336 163.88C184.336 160.424 182.878 157.4 179.962 154.808C177.046 152.216 173.077 150.92 168.055 150.92C163.087 150.92 159.145 152.162 156.229 154.646C153.367 157.076 151.936 160.424 151.936 164.69C151.936 165.5 151.531 165.905 150.721 165.905C149.911 165.905 149.506 165.5 149.506 164.69ZM165.139 205.757C164.437 205.001 164.086 204.002 164.086 202.76C164.086 201.518 164.437 200.546 165.139 199.844C165.895 199.088 166.894 198.71 168.136 198.71C169.378 198.71 170.35 199.088 171.052 199.844C171.808 200.546 172.186 201.518 172.186 202.76C172.186 204.002 171.808 205.001 171.052 205.757C170.35 206.459 169.378 206.81 168.136 206.81C166.894 206.81 165.895 206.459 165.139 205.757Z" fill="white"/>
</svg>
